<?xml version="1.0" encoding="UTF-8" standalone="no"?>
<!-- Generator: Adobe Illustrator 18.0.0, SVG Export Plug-In . SVG Version: 6.00 Build 0)  -->

<svg
   xmlns:dc="http://purl.org/dc/elements/1.1/"
   xmlns:cc="http://creativecommons.org/ns#"
   xmlns:rdf="http://www.w3.org/1999/02/22-rdf-syntax-ns#"
   xmlns:svg="http://www.w3.org/2000/svg"
   xmlns="http://www.w3.org/2000/svg"
   xmlns:sodipodi="http://sodipodi.sourceforge.net/DTD/sodipodi-0.dtd"
   xmlns:inkscape="http://www.inkscape.org/namespaces/inkscape"
   version="1.1"
   id="Capa_1"
   x="0px"
   y="0px"
   width="1000px"
   height="1000px"
   viewBox="0 0 1000 1000"
   enable-background="new 0 0 1000 1000"
   xml:space="preserve"
   sodipodi:docname="file.svg"
   inkscape:version="0.92.1 r15371"><metadata
     id="metadata3689"><rdf:RDF><cc:Work
         rdf:about=""><dc:format>image/svg+xml</dc:format><dc:type
           rdf:resource="http://purl.org/dc/dcmitype/StillImage" /></cc:Work></rdf:RDF></metadata><defs
     id="defs3687" /><sodipodi:namedview
     pagecolor="#ffffff"
     bordercolor="#666666"
     borderopacity="1"
     objecttolerance="10"
     gridtolerance="10"
     guidetolerance="10"
     inkscape:pageopacity="0"
     inkscape:pageshadow="2"
     inkscape:window-width="1920"
     inkscape:window-height="1028"
     id="namedview3685"
     showgrid="false"
     inkscape:zoom="0.14990664"
     inkscape:cx="2589.0085"
     inkscape:cy="-200.02109"
     inkscape:window-x="-8"
     inkscape:window-y="-8"
     inkscape:window-maximized="1"
     inkscape:current-layer="Capa_1" /><path
     d="m 481.63072,154.42928 h -198.94 c -23.31,0 -42.14,18.9 -42.14,42.14 v 597.73 c 0,23.31 18.9,42.14 42.14,42.14 h 437.15 c 23.31,0 42.14,-18.9 42.14,-42.14 v -365.4 c 0,-17.43 -14.07,-31.5 -31.5,-31.5 h -185.85 c -17.43,0 -31.5,-14.07 -31.5,-31.5 v -179.97 c 0,-17.43 -14.07,-31.5 -31.5,-31.5 z"
     id="path3680"
     inkscape:connector-curvature="0"
     style="stroke-width:0.69999999" /><path
     d="m 748.05072,346.64928 c 12.46,0 18.69,-15.05 9.87,-23.87 l -164.22,-164.29 c -8.82,-8.82 -23.87,-2.59 -23.87,9.87 v 164.22 c 0,7.77 6.3,14.07 14.07,14.07 z"
     id="path3682"
     inkscape:connector-curvature="0"
     style="stroke-width:0.69999999" /></svg>