<svg xmlns="http://www.w3.org/2000/svg" viewBox="0 0 32 32" enable-background="new 0 0 32 32" preserveAspectRatio="none"><path fill="none" stroke="#333" stroke-width="1.908" stroke-miterlimit="3.864" d="M20.574 5.42l2.018-1.957c.19-.19.5-.19.69 0l7.575 7.574c.19.19.19.5 0 .69l-2.396 2.397 1.8 1.794c.128.125.098.296-.03.42l-5.443 5.446-.295-.294-.286.286c-.336.336-.882.336-1.22 0l-.44-.44c-.334-.335-.334-.88 0-1.218l.288-.286-.31-.314.59-.59c-1.22-.9-4.63.446-6.058 1.873l-1.29-1.29-.792.8c-.872.87-1.903.598-2.5 0l-1.9-1.9c-.304-.294-.765-.282-1.047 0-.29.288-.29.756 0 1.045l5.06 5.06c.957.957.957 2.508 0 3.465-.96.96-2.53.933-3.483-.02l-7.567-7.57c-.304-.296-.764-.284-1.046 0-.817.815-2.026-.395-1.21-1.21.956-.956 2.497-.95 3.46-.004l7.57 7.572c.297.293.78.3 1.064.018.29-.288.29-.756 0-1.045l-5.06-5.063c-.953-.956-.953-2.507 0-3.464.96-.95 2.5-.95 3.465 0l1.9 1.9.04.04.042-.04.79-.79-1.28-1.28c1.43-1.423 2.777-4.835 1.876-6.054l-.59.59-.27-.27-.334.335c-.336.337-.882.337-1.22 0l-.44-.44c-.333-.335-.333-.88 0-1.217l.34-.335-.34-.34 5.446-5.45c.124-.124.296-.154.42-.03L20.2 5.86l.265-.265.11-.172z"/><path fill-rule="evenodd" clip-rule="evenodd" fill="#D8D8D8" d="M24.197 19.68c-.336-.337-.882-.337-1.22 0l-.438.438c-.34.337-.34.883 0 1.22l.43.438c.337.336.883.336 1.22 0l.44-.44c.335-.335.335-.88 0-1.218l-.44-.44zM13.945 9.526c-.337-.336-.882-.336-1.22 0l-.437.44c-.337.335-.337.88 0 1.218l.438.44c.337.335.883.335 1.22 0l.438-.44c.336-.337.336-.883 0-1.22l-.44-.438z"/><linearGradient id="a" gradientUnits="userSpaceOnUse" x1="1721.147" y1="-1570.56" x2="1712.881" y2="-1578.826" gradientTransform="translate(-1692 1584)"><stop offset="0" stop-color="#CDCDCD"/><stop offset=".898" stop-color="#DADADA"/><stop offset="1" stop-color="#DADADA"/></linearGradient><path fill-rule="evenodd" clip-rule="evenodd" fill="url(#a)" d="M23.283 3.463c-.19-.19-.5-.19-.69 0L19.17 6.886c-.193.19-.193.5 0 .69l7.57 7.575c.19.2.5.2.69 0l3.426-3.42c.19-.19.19-.5 0-.69l-7.574-7.57z"/><path fill="#B3B3B3" d="M13.712 19.13l-.04-.038-1.903-1.9c-.97-.947-2.51-.953-3.47.002-.957.957-.957 2.508 0 3.464l5.06 5.06c.29.29.29.758 0 1.046-.28.28-.767.275-1.063-.018l-7.57-7.572c-.966-.946-2.506-.952-3.46.003-.817.816.392 2.026 1.21 1.21.28-.283.74-.295 1.046 0l7.566 7.567c.953.953 2.523.98 3.482.02.957-.957.957-2.508 0-3.464l-5.06-5.06c-.29-.29-.29-.758 0-1.046.28-.282.742-.294 1.046 0l1.897 1.898c.594.598 1.63.872 2.5 0l.97-.97-1.21-1.208-.97.968-.04.04z"/><linearGradient id="b" gradientUnits="userSpaceOnUse" x1="1708.009" y1="-1579.343" x2="1716.443" y2="-1562.051" gradientTransform="translate(-1692 1584)"><stop offset="0" stop-color="#CAFD98"/><stop offset=".93" stop-color="#61B952"/><stop offset="1" stop-color="#61B952"/></linearGradient><path fill="url(#b)" d="M18.15 3.812c-.125-.125-.297-.094-.42.03L12.28 9.29l2.267 2.266.59-.59c.9 1.22-.447 4.63-1.874 6.057l3.78 3.778c1.425-1.42 4.837-2.77 6.056-1.87l-.59.59 2.26 2.27 5.445-5.443c.124-.124.154-.296.03-.42L18.15 3.81z"/><path fill-rule="evenodd" clip-rule="evenodd" fill="none" stroke="#666" stroke-width=".954" stroke-miterlimit="3.864" d="M20.503 5.493l8.266 8.265"/><path fill-rule="evenodd" clip-rule="evenodd" fill="none" stroke="#F0FFE1" stroke-width=".954" stroke-miterlimit="3.864" d="M13.455 17.197c1.69-1.69 3.224-5.077 1.964-6.336m2.85-6.81L13 9.33l1.88 1.876"/><path fill-rule="evenodd" clip-rule="evenodd" fill="none" stroke="#51A443" stroke-width=".954" stroke-miterlimit="3.864" d="M13.62 16.662l3.75 3.774m2.253-11.19l5.2 5.2"/><path fill-rule="evenodd" clip-rule="evenodd" fill="none" stroke="#D6F8BC" stroke-width=".954" stroke-miterlimit="3.864" d="M18.93 9.938l5.2 5.2"/></svg>